<svg width="30" height="38" viewBox="0 0 30 38" fill="none" xmlns="http://www.w3.org/2000/svg">
<circle cx="15" cy="22.6743" r="15" fill="#ED9900"/>
<circle cx="15" cy="26.6743" r="10" fill="#FDCD1D"/>
<path d="M14.134 4.17432C14.5189 3.50765 15.4811 3.50765 15.866 4.17432L18.4641 8.67432C18.849 9.34098 18.3679 10.1743 17.5981 10.1743H12.4019C11.6321 10.1743 11.151 9.34098 11.5359 8.67432L14.134 4.17432Z" fill="#ED9900"/>
<path d="M21.134 7.17432C21.5189 6.50765 22.4811 6.50765 22.866 7.17432L25.4641 11.6743C25.849 12.341 25.3679 13.1743 24.5981 13.1743H19.4019C18.6321 13.1743 18.151 12.341 18.5359 11.6743L21.134 7.17432Z" fill="#ED9900"/>
<path d="M8.13397 7.17432C8.51887 6.50765 9.48113 6.50765 9.86603 7.17432L12.4641 11.6743C12.849 12.341 12.3679 13.1743 11.5981 13.1743H6.40192C5.63212 13.1743 5.151 12.341 5.5359 11.6743L8.13397 7.17432Z" fill="#ED9900"/>
<rect x="17.1638" y="0.446777" width="1" height="3.87157" rx="0.5" transform="rotate(-26.5402 17.1638 0.446777)" fill="#ED9900"/>
<rect x="10.6927" y="2.24731" width="1" height="1.87731" rx="0.5" transform="rotate(21.6519 10.6927 2.24731)" fill="#ED9900"/>
</svg>
